<svg width="500" height="400" viewBox="0 0 500 400" fill="none" xmlns="http://www.w3.org/2000/svg">
  <!-- Chef with cooking hat -->
  <circle cx="250" cy="120" r="40" fill="#FDBCB4"/>
  <rect x="225" y="65" width="50" height="25" rx="12" fill="white"/>
  <circle cx="250" cy="65" r="8" fill="#E74C3C"/>
  
  <!-- Body -->
  <rect x="220" y="160" width="60" height="80" rx="30" fill="#4ECDC4"/>
  
  <!-- Arms -->
  <rect x="190" y="170" width="20" height="50" rx="10" fill="#FDBCB4"/>
  <rect x="290" y="170" width="20" height="50" rx="10" fill="#FDBCB4"/>
  
  <!-- Cooking pot -->
  <ellipse cx="320" cy="250" rx="35" ry="20" fill="#34495E"/>
  <rect x="285" y="230" width="70" height="40" rx="35" fill="#2C3E50"/>
  <rect x="315" y="225" width="10" height="15" fill="#2C3E50"/>
  
  <!-- Steam -->
  <path d="M310 215 Q315 205 320 215 Q325 205 330 215" stroke="#95A5A6" stroke-width="2" fill="none"/>
  <path d="M315 210 Q320 200 325 210 Q330 200 335 210" stroke="#95A5A6" stroke-width="2" fill="none"/>
  
  <!-- Kitchen utensils -->
  <rect x="180" y="200" width="4" height="60" fill="#8B4513"/>
  <ellipse cx="182" cy="195" rx="8" ry="5" fill="#FFD700"/>
  
  <!-- Ingredients around -->
  <circle cx="150" cy="280" r="15" fill="#E74C3C"/>
  <circle cx="170" cy="290" r="10" fill="#F39C12"/>
  <circle cx="350" cy="280" r="12" fill="#27AE60"/>
  
  <!-- Background kitchen elements -->
  <rect x="50" y="320" width="400" height="60" fill="#ECF0F1"/>
  <rect x="80" y="300" width="30" height="40" fill="#BDC3C7"/>
  <rect x="120" y="295" width="25" height="45" fill="#BDC3C7"/>
  <rect x="370" y="300" width="35" height="40" fill="#BDC3C7"/>
</svg>
